# xmcd CD database file
#
# Track frame offsets:
#	182
#	12730
#	27145
#	43732
#	55145
#	69500
#	82325
#	97865
#	111997
#	124372
#	137327
#	149367
#	165702
#	180692
#	192385
#	203040
#	215465
#	226855
#
# Disc length: 3151 seconds
#
# Revision: 5
# Processed by: cddbd v1.5.2PL0 Copyright (c) Steve Scherf et al.
# Submitted via: jetAudio 7
#
DISCID=060c4d12
DTITLE=Various Artist - Country Music's Greatest Hits Disc 1
DYEAR=1997
DGENRE=Country
TTITLE0=9 To 5
TTITLE1=Rhinestone Cowboy
TTITLE2=Riders In The Sky
TTITLE3=Crazy Arms
TTITLE4=[Hey Won't You Play] Another Somebody Dome Sombody Wrong Song
TTITLE5=Take Me To Your World
TTITLE6=When I Dream
TTITLE7=We Love Each Other
TTITLE8=What I've Got In Mind
TTITLE9=Ruby, Don't Take Your Love To Town
TTITLE10=Top Of The World
TTITLE11=Blue Skies
TTITLE12=I Recall A Gypsy Woman
TTITLE13=All I Have To Do Is Dream
TTITLE14=He'll Have To Go
TTITLE15=Crazy
TTITLE16=A White Sport Coat (And A Pink Carnation)
TTITLE17=I Got Stripes
EXTD=
EXTT0=
EXTT1=
EXTT2=
EXTT3=
EXTT4=
EXTT5=
EXTT6=
EXTT7=
EXTT8=
EXTT9=
EXTT10=
EXTT11=
EXTT12=
EXTT13=
EXTT14=
EXTT15=
EXTT16=
EXTT17=
PLAYORDER=
